<svg xmlns="http://www.w3.org/2000/svg" width="463.29" height="128.696" viewBox="0 0 463.29 128.696">
  <g id="Group_415" data-name="Group 415" transform="translate(-200 -200)">
    <g id="Divid_logotyp" transform="translate(200.005 200)">
      <g id="Group_393" data-name="Group 393" transform="translate(0 0)">
        <rect id="Rectangle_1260" data-name="Rectangle 1260" width="32.069" height="32.069" transform="translate(0 0.473)" fill="#f2ff00"/>
        <g id="Group_390" data-name="Group 390" transform="translate(150.932 0)">
          <path id="Path_6628" data-name="Path 6628" d="M50.828,200.818H80.06v-92.48H50.828ZM50.46,97.31H80.428V75.616H50.46Z" transform="translate(-50.46 -72.123)" fill="#efefef"/>
          <path id="Path_6629" data-name="Path 6629" d="M143.183,86.3l-23.9,66.37H116.16L92.256,86.3H64.679v7.722l32.358,84.758h40.631l32.361-84.758V86.3Z" transform="translate(-21.111 -50.079)" fill="#efefef"/>
          <path id="Path_6630" data-name="Path 6630" d="M103.807,200.818h29.232v-92.48H103.807ZM103.439,97.31h29.968V75.616H103.439Z" transform="translate(58.897 -72.123)" fill="#efefef"/>
          <path id="Path_6631" data-name="Path 6631" d="M149.65,171.733v-29.6l7.538-7.541h31.987v36.773l-10.109,7.906H157.188Zm39.525-97.257v36.218H142.112L120.418,132.2v49.272l21.694,21.694h39.344l9.744-8.086h3.861v8.086H218.41V74.476Z" transform="translate(93.943 -74.476)" fill="#efefef"/>
        </g>
      </g>
    </g>
    <g id="Group_411" data-name="Group 411" transform="translate(200 200)">
      <path id="Subtraction_51" data-name="Subtraction 51" d="M96.31,128.416H0V0H96.31l32.105,32.1V96.312l-32.105,32.1ZM32.1,32.1V96.312l51.152.166,13.014-13V44.979L83.482,32.185,32.1,32.1Z" transform="translate(0.17 0)" fill="#efefef"/>
      <path id="Path_6668" data-name="Path 6668" d="M0,0H32.146V32.146H0Z" transform="translate(0 0.001)" fill="#f2ff00"/>
    </g>
  </g>
</svg>