<?xml version="1.0" encoding="UTF-8" standalone="no"?>
<svg
   xmlns:dc="http://purl.org/dc/elements/1.1/"
   xmlns:cc="http://creativecommons.org/ns#"
   xmlns:rdf="http://www.w3.org/1999/02/22-rdf-syntax-ns#"
   xmlns:svg="http://www.w3.org/2000/svg"
   xmlns="http://www.w3.org/2000/svg"
   xmlns:sodipodi="http://sodipodi.sourceforge.net/DTD/sodipodi-0.dtd"
   xmlns:inkscape="http://www.inkscape.org/namespaces/inkscape"
   width="24"
   height="24"
   viewBox="0 0 24 24"
   fill="none"
   version="1.1"
   id="svg58"
   sodipodi:docname="marketplace.svg"
   inkscape:version="1.0.2 (e86c870879, 2021-01-15)">
  <metadata
     id="metadata64">
    <rdf:RDF>
      <cc:Work
         rdf:about="">
        <dc:format>image/svg+xml</dc:format>
        <dc:type
           rdf:resource="http://purl.org/dc/dcmitype/StillImage" />
        <dc:title></dc:title>
      </cc:Work>
    </rdf:RDF>
  </metadata>
  <defs
     id="defs62" />
  <sodipodi:namedview
     pagecolor="#ffffff"
     bordercolor="#666666"
     borderopacity="1"
     objecttolerance="10"
     gridtolerance="10"
     guidetolerance="10"
     inkscape:pageopacity="0"
     inkscape:pageshadow="2"
     inkscape:window-width="1920"
     inkscape:window-height="1163"
     id="namedview60"
     showgrid="false"
     inkscape:zoom="30.703321"
     inkscape:cx="8.5188277"
     inkscape:cy="12.095388"
     inkscape:window-x="0"
     inkscape:window-y="0"
     inkscape:window-maximized="1"
     inkscape:current-layer="svg58" />
  <path
     d="M 19,3 H 5 C 4.20435,3 3.44129,3.316071 2.87868,3.87868 2.316071,4.44129 2,5.20435 2,6 V 9 C 2.00225,9.69895 2.188213,10.38503 2.53924,10.98945 2.890267,11.59386 3.39402,12.09537 4,12.4437 V 22 h 16 v -9.5563 c 0.606,-0.34833 1.1097,-0.84984 1.4608,-1.45425 C 21.8118,10.38503 21.9977,9.69895 22,9 V 6 C 22,5.20435 21.6839,4.44129 21.1213,3.87868 20.5587,3.316071 19.7956,3 19,3 Z m -9,2 h 4 v 4 c 0,0.53043 -0.2107,1.03914 -0.5858,1.41421 C 13.0391,10.78929 12.5304,11 12,11 11.46957,11 10.96086,10.78929 10.58579,10.41421 10.21071,10.03914 10,9.53043 10,9 Z M 4,9 V 5 H 8 V 9 C 8,9.53043 7.78929,10.03914 7.41421,10.41421 7.03914,10.78929 6.53043,11 6,11 5.46957,11 4.96086,10.78929 4.58579,10.41421 4.21071,10.03914 4,9.53043 4,9 Z m 14,11 h -4 v -5 h -4 v 5 H 6 V 13 C 6.56991,12.9982 7.13276,12.87378 7.65038,12.63529 8.168,12.39681 8.62828,12.0498 9,11.6178 c 0.37052,0.43342 0.83056,0.78142 1.34845,1.02003 0.51789,0.2386 1.08134,0.36216 1.65155,0.36216 0.5702,0 1.1337,-0.12356 1.6515,-0.36216 0.5179,-0.23861 0.978,-0.58661 1.3485,-1.02003 0.3717,0.432 0.832,0.77901 1.3496,1.01749 C 16.8672,12.87378 17.4301,12.99816 18,13 Z M 20,9 c 0,0.53043 -0.2107,1.03914 -0.5858,1.41421 C 19.0391,10.78929 18.5304,11 18,11 17.4696,11 16.9609,10.78929 16.5858,10.41421 16.2107,10.03914 16,9.53043 16,9 V 5 h 4 z"
     fill="#000000"
     id="path56" />
</svg>
